{
  "source": "C:\\Users\\Peter\\Desktop\\stuff\\MIUN\\quantitative_research\\video_compression\\videos\\BVI-HD\\BVI-HD_CDVL_videos\\ORIG\\Fountain_1920x1080_50fps.mp4",
  "output": "C:\\Users\\Peter\\Desktop\\stuff\\MIUN\\quantitative_research\\video_compression\\compressed_videos\\BVI-HD\\vp9\\1\\Fountain_1920x1080_50fps_vp9.webm",
  "codec": "vp9",
  "ok": "Input #0, mov,mp4,m4a,3gp,3g2,mj2, from 'C:\\Users\\Peter\\Desktop\\stuff\\MIUN\\quantitative_research\\video_compression\\videos\\BVI-HD\\BVI-HD_CDVL_videos\\ORIG\\Fountain_1920x1080_50fps.mp4':\n  Metadata:\n    major_brand     : isom\n    minor_version   : 512\n    compatible_brands: isomiso2avc1mp41\n    encoder         : Lavf54.28.101\n  Duration: 00:00:05.00, start: 0.000000, bitrate: 603457 kb/s\n  Stream #0:0[0x1](und): Video: h264 (High 4:4:4 Predictive) (avc1 / 0x31637661), yuv420p(progressive), 1920x1080, 603453 kb/s, 50 fps, 50 tbr, 50 tbn (default)\n    Metadata:\n      handler_name    : VideoHandler\n      vendor_id       : [0][0][0][0]\n[out#0/webm @ 0000027291849a00] Codec AVOption b:a (set bitrate (in bits/s)) has not been used for any stream. The most likely reason is either wrong type (e.g. a video option with no video streams) or that it is a private option of some decoder which was not actually used for any stream.\nStream mapping:\n  Stream #0:0 -> #0:0 (h264 (native) -> vp9 (libvpx-vp9))\nPress [q] to stop, [?] for help\n[libvpx-vp9 @ 0000027292370a00] v1.15.2-100-g40561f514\nOutput #0, webm, to 'C:\\Users\\Peter\\Desktop\\stuff\\MIUN\\quantitative_research\\video_compression\\compressed_videos\\BVI-HD\\vp9\\1\\Fountain_1920x1080_50fps_vp9.webm':\n  Metadata:\n    major_brand     : isom\n    minor_version   : 512\n    compatible_brands: isomiso2avc1mp41\n    encoder         : Lavf62.3.100\n  Stream #0:0(und): Video: vp9, yuv420p(tv, progressive), 1920x1080, q=2-31, 1000 kb/s, 50 fps, 1k tbn (default)\n    Metadata:\n      encoder         : Lavc62.11.100 libvpx-vp9\n      handler_name    : VideoHandler\n      vendor_id       : [0][0][0][0]\n    Side data:\n      cpb: bitrate max/min/avg: 0/0/0 buffer size: 1000000 vbv_delay: N/A\nframe=    0 fps=0.0 q=0.0 size=       0KiB time=N/A bitrate=N/A speed=N/A elapsed=0:00:01.09    \nframe=    9 fps=5.5 q=60.0 size=       1KiB time=00:00:00.18 bitrate=  28.2kbits/s speed=0.11x elapsed=0:00:01.63    \nframe=   15 fps=7.0 q=60.0 size=       1KiB time=00:00:00.30 bitrate=  16.9kbits/s speed=0.139x elapsed=0:00:02.15    \nframe=   22 fps=8.2 q=60.0 size=       1KiB time=00:00:00.44 bitrate=  11.5kbits/s speed=0.165x elapsed=0:00:02.66    \nframe=   27 fps=8.5 q=60.0 size=       1KiB time=00:00:00.54 bitrate=   9.4kbits/s speed=0.169x elapsed=0:00:03.19    \nframe=   33 fps=8.9 q=61.0 size=       1KiB time=00:00:00.66 bitrate=   7.7kbits/s speed=0.177x elapsed=0:00:03.72    \nframe=   39 fps=9.1 q=60.0 size=       1KiB time=00:00:00.78 bitrate=   6.5kbits/s speed=0.182x elapsed=0:00:04.28    \nframe=   44 fps=9.1 q=61.0 size=       1KiB time=00:00:00.88 bitrate=   5.8kbits/s speed=0.182x elapsed=0:00:04.83    \nframe=   49 fps=9.2 q=61.0 size=       1KiB time=00:00:00.98 bitrate=   5.2kbits/s speed=0.183x elapsed=0:00:05.34    \nframe=   54 fps=9.2 q=61.0 size=       1KiB time=00:00:01.08 bitrate=   4.7kbits/s speed=0.183x elapsed=0:00:05.88    \nframe=   59 fps=9.2 q=61.0 size=       1KiB time=00:00:01.18 bitrate=   4.3kbits/s speed=0.184x elapsed=0:00:06.40    \nframe=   63 fps=9.1 q=61.0 size=       1KiB time=00:00:01.26 bitrate=   4.0kbits/s speed=0.182x elapsed=0:00:06.92    \nframe=   69 fps=9.3 q=61.0 size=       1KiB time=00:00:01.38 bitrate=   3.7kbits/s speed=0.185x elapsed=0:00:07.45    \nframe=   75 fps=9.4 q=60.0 size=       1KiB time=00:00:01.50 bitrate=   3.4kbits/s speed=0.188x elapsed=0:00:07.99    \nframe=   79 fps=9.3 q=60.0 size=       1KiB time=00:00:01.58 bitrate=   3.2kbits/s speed=0.185x elapsed=0:00:08.51    \nframe=   84 fps=9.3 q=59.0 size=       1KiB time=00:00:01.68 bitrate=   3.0kbits/s speed=0.186x elapsed=0:00:09.04    \nframe=   89 fps=9.3 q=60.0 size=       1KiB time=00:00:01.78 bitrate=   2.8kbits/s speed=0.186x elapsed=0:00:09.58    \nframe=   94 fps=9.3 q=51.0 size=       1KiB time=00:00:01.88 bitrate=   2.7kbits/s speed=0.186x elapsed=0:00:10.12    \nframe=   99 fps=9.3 q=61.0 size=       1KiB time=00:00:01.98 bitrate=   2.6kbits/s speed=0.186x elapsed=0:00:10.65    \nframe=  105 fps=9.4 q=62.0 size=       1KiB time=00:00:02.10 bitrate=   2.4kbits/s speed=0.188x elapsed=0:00:11.18    \nframe=  109 fps=9.3 q=61.0 size=       1KiB time=00:00:02.18 bitrate=   2.3kbits/s speed=0.186x elapsed=0:00:11.70    \nframe=  113 fps=9.2 q=61.0 size=       1KiB time=00:00:02.24 bitrate=   2.3kbits/s speed=0.183x elapsed=0:00:12.22    \nframe=  117 fps=9.1 q=61.0 size=       1KiB time=00:00:02.34 bitrate=   2.2kbits/s speed=0.183x elapsed=0:00:12.79    \nframe=  121 fps=9.1 q=61.0 size=       1KiB time=00:00:02.42 bitrate=   2.1kbits/s speed=0.181x elapsed=0:00:13.36    \nframe=  123 fps=8.8 q=61.0 size=       1KiB time=00:00:02.46 bitrate=   2.1kbits/s speed=0.177x elapsed=0:00:13.93    \nframe=  126 fps=8.7 q=61.0 size=       1KiB time=00:00:02.52 bitrate=   2.0kbits/s speed=0.173x elapsed=0:00:14.54    \nframe=  128 fps=8.5 q=62.0 size=       1KiB time=00:00:02.56 bitrate=   2.0kbits/s speed=0.169x elapsed=0:00:15.13    \nframe=  130 fps=8.3 q=61.0 size=     256KiB time=00:00:02.60 bitrate= 806.6kbits/s speed=0.165x elapsed=0:00:15.72    \nframe=  134 fps=8.2 q=61.0 size=     256KiB time=00:00:02.66 bitrate= 788.4kbits/s speed=0.163x elapsed=0:00:16.29    \nframe=  137 fps=8.1 q=60.0 size=     256KiB time=00:00:02.74 bitrate= 765.4kbits/s speed=0.162x elapsed=0:00:16.87    \nframe=  140 fps=8.0 q=61.0 size=     256KiB time=00:00:02.80 bitrate= 749.0kbits/s speed=0.161x elapsed=0:00:17.40    \nframe=  144 fps=8.0 q=61.0 size=     256KiB time=00:00:02.86 bitrate= 733.3kbits/s speed=0.159x elapsed=0:00:17.94    \nframe=  146 fps=7.9 q=61.0 size=     256KiB time=00:00:02.92 bitrate= 718.2kbits/s speed=0.158x elapsed=0:00:18.49    \nframe=  149 fps=7.8 q=61.0 size=     256KiB time=00:00:02.98 bitrate= 703.7kbits/s speed=0.156x elapsed=0:00:19.08    \nframe=  152 fps=7.7 q=61.0 size=     256KiB time=00:00:03.04 bitrate= 689.9kbits/s speed=0.155x elapsed=0:00:19.64    \nframe=  156 fps=7.7 q=61.0 size=     256KiB time=00:00:03.12 bitrate= 672.2kbits/s speed=0.154x elapsed=0:00:20.19    \nframe=  159 fps=7.7 q=51.0 size=     256KiB time=00:00:03.18 bitrate= 659.5kbits/s speed=0.153x elapsed=0:00:20.74    \nframe=  163 fps=7.7 q=61.0 size=     256KiB time=00:00:03.26 bitrate= 643.3kbits/s speed=0.153x elapsed=0:00:21.30    \nframe=  165 fps=7.6 q=52.0 size=     256KiB time=00:00:03.30 bitrate= 635.5kbits/s speed=0.151x elapsed=0:00:21.84    \nframe=  170 fps=7.6 q=60.0 size=     256KiB time=00:00:03.40 bitrate= 616.8kbits/s speed=0.152x elapsed=0:00:22.36    \nframe=  172 fps=7.5 q=61.0 size=     256KiB time=00:00:03.44 bitrate= 609.6kbits/s speed=0.15x elapsed=0:00:22.93    \nframe=  176 fps=7.5 q=60.0 size=     256KiB time=00:00:03.50 bitrate= 599.2kbits/s speed=0.149x elapsed=0:00:23.49    \nframe=  178 fps=7.4 q=60.0 size=     256KiB time=00:00:03.56 bitrate= 589.1kbits/s speed=0.148x elapsed=0:00:24.08    \nframe=  181 fps=7.3 q=59.0 size=     256KiB time=00:00:03.62 bitrate= 579.3kbits/s speed=0.147x elapsed=0:00:24.63    \nframe=  184 fps=7.3 q=60.0 size=     256KiB time=00:00:03.68 bitrate= 569.9kbits/s speed=0.146x elapsed=0:00:25.17    \nframe=  187 fps=7.3 q=60.0 size=     256KiB time=00:00:03.74 bitrate= 560.7kbits/s speed=0.145x elapsed=0:00:25.76    \nframe=  189 fps=7.2 q=51.0 size=     256KiB time=00:00:03.78 bitrate= 554.8kbits/s speed=0.143x elapsed=0:00:26.35    \nframe=  192 fps=7.1 q=61.0 size=     256KiB time=00:00:03.84 bitrate= 546.1kbits/s speed=0.143x elapsed=0:00:26.86    \nframe=  195 fps=7.1 q=51.0 size=     256KiB time=00:00:03.90 bitrate= 537.7kbits/s speed=0.142x elapsed=0:00:27.39    \nframe=  199 fps=7.1 q=61.0 size=     256KiB time=00:00:03.98 bitrate= 526.9kbits/s speed=0.142x elapsed=0:00:27.93    \nframe=  200 fps=7.0 q=61.0 size=     256KiB time=00:00:04.00 bitrate= 524.3kbits/s speed=0.14x elapsed=0:00:28.48    \nframe=  204 fps=7.0 q=61.0 size=     256KiB time=00:00:04.08 bitrate= 514.0kbits/s speed=0.141x elapsed=0:00:29.00    \nframe=  206 fps=7.0 q=61.0 size=     256KiB time=00:00:04.12 bitrate= 509.0kbits/s speed=0.139x elapsed=0:00:29.57    \nframe=  211 fps=7.0 q=61.0 size=     256KiB time=00:00:04.22 bitrate= 497.0kbits/s speed=0.14x elapsed=0:00:30.12    \nframe=  212 fps=6.9 q=61.0 size=     256KiB time=00:00:04.24 bitrate= 494.6kbits/s speed=0.138x elapsed=0:00:30.66    \nframe=  216 fps=6.9 q=61.0 size=     256KiB time=00:00:04.32 bitrate= 485.5kbits/s speed=0.138x elapsed=0:00:31.23    \nframe=  220 fps=6.9 q=61.0 size=     256KiB time=00:00:04.38 bitrate= 478.8kbits/s speed=0.138x elapsed=0:00:31.78    \nframe=  223 fps=6.9 q=61.0 size=     256KiB time=00:00:04.46 bitrate= 470.2kbits/s speed=0.138x elapsed=0:00:32.36    \nframe=  226 fps=6.9 q=62.0 size=     256KiB time=00:00:04.52 bitrate= 464.0kbits/s speed=0.137x elapsed=0:00:32.90    \nframe=  226 fps=6.8 q=62.0 size=     256KiB time=00:00:04.52 bitrate= 464.0kbits/s speed=0.135x elapsed=0:00:33.46    \nframe=  226 fps=6.6 q=62.0 size=     256KiB time=00:00:04.52 bitrate= 464.0kbits/s speed=0.133x elapsed=0:00:34.04    \nframe=  226 fps=6.5 q=62.0 size=     256KiB time=00:00:04.52 bitrate= 464.0kbits/s speed=0.131x elapsed=0:00:34.58    \nframe=  226 fps=6.4 q=62.0 size=     256KiB time=00:00:04.52 bitrate= 464.0kbits/s speed=0.129x elapsed=0:00:35.14    \nframe=  226 fps=6.3 q=62.0 size=     256KiB time=00:00:04.52 bitrate= 464.0kbits/s speed=0.127x elapsed=0:00:35.67    \nframe=  226 fps=6.2 q=62.0 size=     256KiB time=00:00:04.52 bitrate= 464.0kbits/s speed=0.125x elapsed=0:00:36.21    \n[out#0/webm @ 0000027291849a00] video:635KiB audio:0KiB subtitle:0KiB other streams:0KiB global headers:0KiB muxing overhead: 0.376665%\nframe=  250 fps=6.8 q=62.0 Lsize=     637KiB time=00:00:05.00 bitrate=1044.2kbits/s speed=0.136x elapsed=0:00:36.72    \n",
  "seconds": 37.2033805847168,
  "probe_out": {}
}